# xmcd
#
# Track frame offsets: 
#        150
#        12422
#        29017
#        48240
#        71030
#        83172
#        101202
#        111532
#        125252
#        136930
#        151220
#        168267
#        182545
#        200167
#        211992
#        235767
#        255015
#        268740
#
# Disc length: 3759 seconds
#
# Revision: 1
# Processed by: cddbd v1.5.2PL0 Copyright (c) Steve Scherf et al.
# Submitted via: ExactAudioCopy v0.99pb5
#
DISCID=fa0ead12
DTITLE=Various Artist - Blues Route Utrecht '93
DYEAR=1993
DGENRE=Blues
TTITLE0=Ronald Abrams -  Blues Route OpStelten
TTITLE1=J.P. Blues Band - Mean Foolish Dreams
TTITLE2=Point Blue - Blue Train
TTITLE3=Martin Hutchinson Blues Band - The Chase
TTITLE4=Jan Akkerman - J.A.P. Blues
TTITLE5=Zingy's Blues Men - Young Woman's Blues
TTITLE6=Millstreet Blues Band - I Want You
TTITLE7=Red Shoe's - What's Going On
TTITLE8=Rob Hoeke - Mirror Man Blues
TTITLE9=Trouble No More - Burglar
TTITLE10=Tender Madness - Good To You
TTITLE11=Cocco Bill - Roamin' Years
TTITLE12=Big Bam Boom Band - Second Hand Gear
TTITLE13=The Southern Blues Rock Band - If The River Was Whiskey
TTITLE14=Pretty Decent - The Blues Has Come
TTITLE15=One Night Blues Band - Night Train
TTITLE16=Outline - Bartender
TTITLE17=McAnthoney's Blues Gang - That's Allright
EXTD=submitted by: klaas@wierenga.net
EXTT0=
EXTT1=
EXTT2=
EXTT3=
EXTT4=
EXTT5=
EXTT6=
EXTT7=
EXTT8=
EXTT9=
EXTT10=
EXTT11=
EXTT12=
EXTT13=
EXTT14=
EXTT15=
EXTT16=
EXTT17=
PLAYORDER=
